<svg width="56" height="56" viewBox="0 0 56 56" fill="none" xmlns="http://www.w3.org/2000/svg">
<path d="M55.1892 27.5526C55.294 42.74 43.0669 55.1107 27.8793 55.1832C12.6916 55.2558 0.294601 43.0027 0.189785 27.8153C0.0849698 12.6278 12.312 0.257109 27.4997 0.184564C42.6873 0.112018 55.0843 12.3651 55.1892 27.5526Z" fill="black"/>
<path d="M14.5558 20.3215C14.0159 20.3241 13.5085 20.2265 13.0338 20.0287C12.5657 19.8243 12.1538 19.5429 11.7979 19.1846C11.4488 18.8196 11.1725 18.3943 10.9691 17.9086C10.7724 17.4229 10.6721 16.8967 10.6682 16.33C10.6644 15.77 10.7574 15.2496 10.9474 14.7687C11.1441 14.2811 11.4145 13.8564 11.7587 13.4948C12.1095 13.1264 12.5175 12.8378 12.9827 12.6289C13.448 12.42 13.9539 12.3143 14.5006 12.3117C15.0139 12.3092 15.4544 12.3738 15.8219 12.5054C16.1962 12.6369 16.571 12.8551 16.9465 13.16C17.0001 13.1997 17.0404 13.2429 17.0674 13.2894C17.101 13.3293 17.1213 13.3725 17.1283 13.4191C17.1419 13.4591 17.1489 13.509 17.1493 13.569C17.1502 13.6957 17.1042 13.8026 17.0115 13.8897C16.9254 13.9768 16.8158 14.024 16.6825 14.0313C16.5559 14.0385 16.4356 13.9958 16.3216 13.903C16.0735 13.6908 15.8157 13.5287 15.5482 13.4167C15.2874 13.3046 14.9404 13.2496 14.5071 13.2516C14.1137 13.2535 13.7443 13.3353 13.3987 13.4969C13.0532 13.6586 12.748 13.8801 12.4833 14.1613C12.2252 14.4426 12.0242 14.7702 11.8801 15.1442C11.7359 15.5116 11.6653 15.9052 11.6682 16.3252C11.6712 16.7519 11.7472 17.1515 11.8965 17.5242C12.0457 17.8901 12.2512 18.2125 12.5132 18.4912C12.7818 18.7699 13.09 18.9885 13.4377 19.1468C13.7854 19.2985 14.156 19.3734 14.5493 19.3715C14.8893 19.3699 15.2089 19.3117 15.5081 19.1969C15.8139 19.0755 16.1061 18.9107 16.3847 18.7027C16.5041 18.6155 16.6205 18.5783 16.734 18.5911C16.854 18.5971 16.9543 18.6433 17.0349 18.7296C17.1155 18.8092 17.1562 18.9224 17.1573 19.069C17.1577 19.1357 17.1448 19.2024 17.1186 19.2692C17.0991 19.3293 17.0594 19.3862 16.9998 19.4398C16.6485 19.7348 16.2667 19.9566 15.8544 20.1053C15.442 20.2472 15.0092 20.3193 14.5558 20.3215ZM17.1573 19.069L16.1559 18.8738L16.1435 17.0839L14.7636 17.0905C14.6169 17.0912 14.4933 17.0484 14.3927 16.9622C14.2921 16.876 14.2413 16.7663 14.2404 16.6329C14.2395 16.4996 14.2887 16.3894 14.3881 16.3022C14.4875 16.2151 14.6105 16.1712 14.7572 16.1705L16.6272 16.1615C16.7805 16.1608 16.9042 16.2102 16.9982 16.3098C17.0922 16.4027 17.1397 16.5258 17.1408 16.6791L17.1573 19.069ZM20.7484 20.2319C20.1951 20.2345 19.701 20.1202 19.266 19.889C18.8377 19.651 18.4988 19.326 18.2493 18.9138C18.0064 18.495 17.8831 18.0156 17.8793 17.4756C17.8756 16.9289 17.9856 16.4484 18.2094 16.034C18.4398 15.6129 18.7576 15.2847 19.1626 15.0494C19.5676 14.8075 20.0335 14.6853 20.5601 14.6827C21.0801 14.6803 21.5276 14.7948 21.9025 15.0263C22.2774 15.2512 22.5629 15.5665 22.7591 15.9723C22.9618 16.3713 23.065 16.8341 23.0686 17.3608C23.0695 17.4875 23.0269 17.5943 22.9409 17.6814C22.8547 17.7618 22.745 17.8023 22.6117 17.803L18.5817 17.8222L18.5762 17.0222L22.5762 17.0031L22.1681 17.2851C22.1591 16.9518 22.0904 16.6555 21.962 16.3961C21.8335 16.13 21.652 15.9209 21.4176 15.7687C21.1832 15.6164 20.8994 15.5411 20.566 15.5427C20.1861 15.5445 19.86 15.6294 19.5878 15.7974C19.3223 15.9653 19.1205 16.1963 18.9826 16.4903C18.8445 16.7776 18.7768 17.1046 18.7793 17.4713C18.7818 17.8379 18.8674 18.1642 19.0361 18.4501C19.2047 18.7359 19.4363 18.9615 19.7308 19.1267C20.0252 19.292 20.3625 19.3737 20.7425 19.3719C20.9491 19.3709 21.1589 19.3333 21.3717 19.2589C21.5912 19.1779 21.7672 19.087 21.8998 18.9864C21.9993 18.9126 22.1057 18.8754 22.2191 18.8749C22.339 18.8676 22.4426 18.9005 22.5298 18.9734C22.6438 19.0728 22.7045 19.1825 22.712 19.3025C22.7195 19.4225 22.6669 19.5261 22.5542 19.6133C22.3288 19.7943 22.0464 19.9424 21.7072 20.0573C21.3747 20.1722 21.0551 20.2304 20.7484 20.2319ZM26.229 20.1657C25.8957 20.1673 25.5951 20.0854 25.3273 19.92C25.0594 19.748 24.8478 19.5156 24.6925 19.223C24.5371 18.9305 24.4582 18.6008 24.4556 18.2342L24.4227 13.4643C24.4217 13.3176 24.4675 13.1974 24.5602 13.1036C24.6529 13.0098 24.7726 12.9626 24.9193 12.9619C25.0659 12.9612 25.1863 13.0073 25.2802 13.1002C25.3742 13.1931 25.4217 13.3128 25.4227 13.4595L25.4556 18.2294C25.4575 18.4961 25.5323 18.719 25.6803 18.8983C25.8282 19.0776 26.0088 19.1668 26.2221 19.1657L26.5621 19.1641C26.6821 19.1635 26.7824 19.2097 26.8631 19.3027C26.9504 19.3956 26.9945 19.5154 26.9956 19.6621C26.9966 19.8087 26.9407 19.929 26.828 20.0229C26.722 20.1167 26.5823 20.164 26.409 20.1649L26.229 20.1657ZM23.9786 15.7664C23.8386 15.7671 23.725 15.7276 23.6378 15.6481C23.5506 15.5685 23.5065 15.4687 23.5057 15.3487C23.5048 15.2154 23.5474 15.1085 23.6335 15.0281C23.7196 14.9477 23.8327 14.9071 23.9727 14.9064L26.2826 14.8954C26.4226 14.8947 26.5362 14.9342 26.6235 15.0138C26.7107 15.0934 26.7548 15.1998 26.7557 15.3332C26.7565 15.4532 26.7139 15.5534 26.6277 15.6338C26.5416 15.7142 26.4286 15.7547 26.2886 15.7554L23.9786 15.7664ZM30.0926 20.1473C29.7593 20.1489 29.4587 20.067 29.1909 19.9016C28.9231 19.7295 28.7115 19.4972 28.5561 19.2046C28.4007 18.912 28.3218 18.5824 28.3193 18.2157L28.2864 13.4458C28.2853 13.2992 28.3312 13.1789 28.4239 13.0852C28.5166 12.9914 28.6362 12.9442 28.7829 12.9435C28.9296 12.9428 29.0499 12.9888 29.1439 13.0817C29.2378 13.1746 29.2853 13.2944 29.2863 13.4411L29.3193 18.2109C29.3211 18.4776 29.396 18.7006 29.5439 18.8799C29.6918 19.0592 29.8724 19.1483 30.0857 19.1473L30.4257 19.1457C30.5457 19.1451 30.6461 19.1913 30.7267 19.2842C30.814 19.3771 30.8582 19.4969 30.8592 19.6436C30.8602 19.7903 30.8044 19.9105 30.6917 20.0044C30.5856 20.0982 30.446 20.1456 30.2726 20.1464L30.0926 20.1473ZM27.8422 15.748C27.7022 15.7486 27.5886 15.7092 27.5014 15.6296C27.4142 15.55 27.3702 15.4502 27.3693 15.3302C27.3684 15.1969 27.411 15.09 27.4971 15.0096C27.5832 14.9292 27.6963 14.8887 27.8363 14.888L30.1463 14.877C30.2863 14.8763 30.3999 14.9157 30.4871 14.9953C30.5743 15.0749 30.6184 15.1814 30.6193 15.3147C30.6201 15.4347 30.5775 15.5349 30.4914 15.6153C30.4053 15.6957 30.2922 15.7363 30.1522 15.7369L27.8422 15.748ZM32.5763 20.1354C32.4296 20.1361 32.306 20.09 32.2053 19.9972C32.1113 19.8976 32.0638 19.7745 32.0628 19.6278L32.0321 15.178C32.031 15.0246 32.0768 14.9011 32.1695 14.8073C32.2689 14.7135 32.3919 14.6662 32.5385 14.6655C32.6919 14.6648 32.8155 14.7109 32.9095 14.8038C33.0035 14.8966 33.051 15.0198 33.052 15.1731L33.0828 19.623C33.0838 19.7696 33.038 19.8932 32.9453 19.9936C32.8526 20.0874 32.7296 20.1347 32.5763 20.1354ZM32.5324 13.7756C32.3524 13.7764 32.1953 13.7138 32.0611 13.5878C31.9335 13.4551 31.8691 13.2987 31.8678 13.1187C31.8666 12.9387 31.9289 12.7851 32.0547 12.6578C32.1871 12.5239 32.3433 12.4564 32.5233 12.4556C32.7033 12.4547 32.8571 12.5207 32.9847 12.6534C33.1189 12.7794 33.1866 12.9324 33.1878 13.1124C33.1891 13.2924 33.1235 13.4494 32.9911 13.5834C32.8653 13.7106 32.7124 13.7747 32.5324 13.7756ZM39.4539 20.1125C39.3072 20.1132 39.1835 20.0672 39.0829 19.9743C38.9889 19.8748 38.9413 19.7517 38.9403 19.605L38.9234 17.1451C38.9207 16.7651 38.8486 16.4554 38.7069 16.2161C38.5653 15.9768 38.3741 15.801 38.1333 15.6888C37.8991 15.5699 37.6287 15.5112 37.3221 15.5127C37.0421 15.514 36.7891 15.5719 36.5632 15.6863C36.3374 15.8007 36.1584 15.9549 36.0264 16.1489C35.8944 16.3362 35.8292 16.5532 35.8309 16.7998L35.2009 16.8028C35.198 16.3828 35.2954 16.009 35.4932 15.6814C35.6975 15.3471 35.9757 15.0824 36.3277 14.8874C36.6797 14.6924 37.0757 14.5939 37.5157 14.5918C37.9757 14.5896 38.3864 14.6876 38.7478 14.8859C39.1158 15.0775 39.4044 15.3627 39.6137 15.7417C39.8296 16.1207 39.9395 16.5869 39.9433 17.1402L39.9603 19.6001C39.9613 19.7468 39.9122 19.8704 39.8129 19.9708C39.7202 20.0646 39.6005 20.1118 39.4539 20.1125ZM35.3439 20.1322C35.1972 20.1329 35.0736 20.0868 34.9729 19.994C34.8789 19.8944 34.8314 19.7713 34.8304 19.6246L34.7996 15.1647C34.7985 15.0114 34.8444 14.8879 34.937 14.7941C35.0364 14.7003 35.1594 14.653 35.3061 14.6523C35.4594 14.6516 35.5831 14.6977 35.677 14.7905C35.771 14.8834 35.8185 15.0065 35.8196 15.1599L35.8504 19.6198C35.8514 19.7664 35.8056 19.89 35.7129 19.9904C35.6202 20.0842 35.4972 20.1314 35.3439 20.1322ZM43.7804 20.1219C43.2804 20.1243 42.8363 20.0097 42.448 19.7782C42.0664 19.5401 41.7641 19.2148 41.5413 18.8026C41.3184 18.3836 41.2051 17.9042 41.2013 17.3642C41.1976 16.8175 41.3109 16.337 41.5414 15.9225C41.7785 15.5014 42.1029 15.1732 42.5146 14.9379C42.9263 14.6959 43.4021 14.5736 43.9421 14.5711C44.4754 14.5685 44.9496 14.6862 45.3646 14.9243C45.7795 15.1556 46.1051 15.4807 46.3413 15.8996C46.5842 16.3118 46.7075 16.7912 46.7113 17.3379L46.1213 17.3407C46.125 17.8807 46.025 18.3611 45.8212 18.7821C45.6241 19.1964 45.3497 19.5244 44.998 19.7661C44.6463 20.0011 44.2404 20.1197 43.7804 20.1219ZM43.9758 22.351C43.5025 22.3532 43.0585 22.262 42.6439 22.0773C42.2293 21.8926 41.8774 21.621 41.5882 21.2624C41.5008 21.1494 41.4667 21.0329 41.4858 20.9128C41.5117 20.7927 41.5777 20.6957 41.6838 20.6219C41.8033 20.5413 41.9264 20.5141 42.0533 20.5401C42.1868 20.5662 42.2939 20.6323 42.3746 20.7386C42.5562 20.9644 42.7841 21.14 43.0583 21.2653C43.3325 21.3907 43.6429 21.4526 43.9896 21.4509C44.3096 21.4494 44.6024 21.3713 44.868 21.2167C45.1403 21.0621 45.3554 20.8344 45.5133 20.5336C45.6712 20.2329 45.7487 19.8658 45.7457 19.4325L45.7359 18.0125L46.0598 17.131L46.7113 17.3379L46.7262 19.4978C46.7298 20.0245 46.6164 20.5017 46.386 20.9294C46.1557 21.3639 45.8314 21.7088 45.4132 21.9641C45.0016 22.2194 44.5225 22.3484 43.9758 22.351ZM43.9742 19.2209C44.3209 19.2193 44.627 19.1378 44.8925 18.9766C45.1581 18.8153 45.3632 18.5943 45.508 18.3136C45.6594 18.0329 45.7338 17.7092 45.7313 17.3425C45.7287 16.9759 45.6498 16.6529 45.4946 16.3737C45.3459 16.0877 45.1377 15.8654 44.87 15.7066C44.6022 15.5479 44.295 15.4694 43.9483 15.471C43.6017 15.4727 43.2955 15.5542 43.03 15.7154C42.7644 15.8767 42.556 16.101 42.4046 16.3884C42.2532 16.6691 42.1788 16.9928 42.1813 17.3595C42.1838 17.7262 42.2627 18.0491 42.418 18.3284C42.5733 18.6076 42.7848 18.8266 43.0526 18.9853C43.3203 19.1441 43.6275 19.2226 43.9742 19.2209ZM11.6511 31.2354C11.5044 31.2362 11.3808 31.1867 11.2801 31.0872C11.1794 30.9877 11.1285 30.8646 11.1275 30.7179L11.0808 23.9481C11.0797 23.7948 11.1289 23.6712 11.2282 23.5774C11.3276 23.4769 11.4505 23.4263 11.5972 23.4256L13.5972 23.4161C14.0972 23.4137 14.5413 23.5216 14.9294 23.7397C15.3176 23.9579 15.6197 24.2631 15.8358 24.6554C16.0585 25.041 16.1715 25.4871 16.175 25.9938C16.1784 26.4804 16.0714 26.9143 15.854 27.2953C15.6433 27.6763 15.3453 27.9744 14.9602 28.1896C14.575 28.4048 14.1324 28.5136 13.6324 28.516L12.1524 28.523L12.1675 30.713C12.1685 30.8596 12.1194 30.9832 12.0201 31.0837C11.9274 31.1841 11.8044 31.2347 11.6511 31.2354ZM12.1458 27.5631L13.6258 27.556C13.9324 27.5545 14.202 27.4866 14.4344 27.3521C14.6668 27.2177 14.8488 27.0335 14.9806 26.7995C15.1123 26.5655 15.1771 26.2986 15.175 25.9986C15.1728 25.6786 15.1042 25.3989 14.9692 25.1595C14.8342 24.9135 14.6495 24.7211 14.4153 24.5822C14.181 24.4433 13.9105 24.3746 13.6038 24.3761L12.1238 24.3831L12.1458 27.5631ZM17.5779 27.7871C17.5751 27.3871 17.6693 27.03 17.8605 26.7157C18.0583 26.3948 18.3232 26.1402 18.6553 25.9519C18.9873 25.7637 19.3533 25.6686 19.7533 25.6667C20.1533 25.6648 20.4504 25.73 20.6447 25.8624C20.8456 25.9882 20.9233 26.1411 20.8779 26.3213C20.8585 26.4148 20.819 26.4883 20.7594 26.5419C20.7064 26.5888 20.6432 26.6191 20.57 26.6328C20.4968 26.6465 20.4167 26.6435 20.3299 26.624C19.9027 26.5393 19.5193 26.5345 19.1798 26.6094C18.8403 26.6844 18.5713 26.8224 18.3727 27.0233C18.1807 27.2242 18.0858 27.478 18.0879 27.7847L17.5779 27.7871ZM17.6115 31.207C17.4515 31.2077 17.3279 31.1683 17.2407 31.0887C17.1534 31.0025 17.1092 30.876 17.1081 30.7094L17.0772 26.2395C17.0761 26.0795 17.1186 25.956 17.2047 25.8689C17.2907 25.7818 17.4138 25.7379 17.5738 25.7371C17.7404 25.7363 17.8641 25.7791 17.9447 25.8653C18.0319 25.9449 18.0761 26.068 18.0772 26.2347L18.1081 30.7046C18.1092 30.8646 18.0667 30.9881 17.9806 31.0752C17.9012 31.1623 17.7782 31.2062 17.6115 31.207ZM23.9046 31.2169C23.3646 31.2195 22.8871 31.1051 22.4722 30.8738C22.0572 30.6357 21.7283 30.3106 21.4855 29.8985C21.2492 29.4796 21.1292 29.0002 21.1255 28.4602C21.1217 27.9135 21.2351 27.433 21.4656 27.0185C21.7027 26.5974 22.0271 26.2692 22.4388 26.0339C22.8505 25.7919 23.3263 25.6696 23.8663 25.6671C24.3996 25.6645 24.8738 25.7822 25.2888 26.0203C25.7037 26.2516 26.0293 26.5767 26.2655 26.9956C26.5084 27.4078 26.6317 27.8872 26.6355 28.4339C26.6392 28.9738 26.5258 29.4544 26.2954 29.8755C26.0649 30.2899 25.7438 30.6181 25.3322 30.8601C24.9205 31.0954 24.4446 31.2143 23.9046 31.2169ZM23.8984 30.3169C24.2451 30.3153 24.5512 30.2338 24.8167 30.0726C25.0823 29.9113 25.2874 29.6903 25.4322 29.4096C25.5836 29.1289 25.658 28.8052 25.6555 28.4385C25.6529 28.0719 25.574 27.7489 25.4188 27.4697C25.2701 27.1837 25.0619 26.9614 24.7942 26.8026C24.5264 26.6439 24.2192 26.5654 23.8725 26.567C23.5258 26.5687 23.2197 26.6501 22.9542 26.8114C22.6886 26.9727 22.4802 27.197 22.3288 27.4844C22.1774 27.7651 22.103 28.0888 22.1055 28.4555C22.108 28.8221 22.1869 29.1451 22.3422 29.4244C22.4975 29.7036 22.709 29.9226 22.9767 30.0813C23.2445 30.2401 23.5517 30.3186 23.8984 30.3169ZM26.6385 33.5039C26.4918 33.5046 26.3715 33.4552 26.2775 33.3556C26.1835 33.2627 26.136 33.1429 26.135 32.9963C26.1339 32.843 26.1797 32.7194 26.2724 32.6256C26.3651 32.5318 26.4848 32.4846 26.6315 32.4839C26.8981 32.4826 27.131 32.4215 27.3302 32.3006C27.5294 32.1863 27.685 32.0289 27.797 31.8283C27.9156 31.6278 27.974 31.3975 27.9722 31.1375L27.9381 26.1976C27.937 26.0443 27.9829 25.9207 28.0755 25.8269C28.1749 25.7331 28.2979 25.6859 28.4446 25.6852C28.5979 25.6845 28.7216 25.7305 28.8155 25.8234C28.9095 25.9163 28.957 26.0394 28.9581 26.1927L28.9922 31.1326C28.9954 31.5926 28.8948 31.9998 28.6906 32.3541C28.493 32.7084 28.2183 32.9863 27.8663 33.188C27.5144 33.3964 27.1052 33.5017 26.6385 33.5039ZM28.4384 24.7952C28.2584 24.7961 28.1013 24.7335 27.9671 24.6075C27.8395 24.4747 27.7751 24.3184 27.7739 24.1384C27.7726 23.9584 27.8349 23.8047 27.9607 23.6775C28.0931 23.5435 28.2493 23.4761 28.4293 23.4752C28.6093 23.4744 28.7631 23.5403 28.8907 23.673C29.0249 23.7991 29.0926 23.9521 29.0939 24.1321C29.0951 24.3121 29.0295 24.469 28.8971 24.603C28.7713 24.7303 28.6184 24.7943 28.4384 24.7952ZM32.9133 31.1739C32.3599 31.1765 31.8658 31.0622 31.4309 30.831C31.0025 30.593 30.6636 30.268 30.4141 29.8558C30.1712 29.437 30.0479 28.9576 30.0442 28.4176C30.0404 27.8709 30.1504 27.3904 30.3742 26.976C30.6047 26.5549 30.9224 26.2267 31.3275 25.9914C31.7325 25.7495 32.1983 25.6273 32.7249 25.6247C33.2449 25.6223 33.6924 25.7368 34.0674 25.9683C34.4422 26.1932 34.7278 26.5085 34.9239 26.9142C35.1267 27.3133 35.2299 27.7761 35.2335 28.3028C35.2344 28.4294 35.1918 28.5363 35.1057 28.6234C35.0196 28.7038 34.9099 28.7443 34.7765 28.745L30.7466 28.7642L30.7411 27.9642L34.741 27.9451L34.3329 28.2271C34.324 27.8938 34.2553 27.5974 34.1268 27.3381C33.9983 27.072 33.8169 26.8629 33.5825 26.7107C33.3481 26.5584 33.0642 26.4831 32.7309 26.4847C32.3509 26.4865 32.0248 26.5714 31.7526 26.7394C31.4871 26.9073 31.2854 27.1383 31.1474 27.4323C31.0094 27.7196 30.9416 28.0466 30.9442 28.4133C30.9467 28.7799 31.0323 29.1062 31.2009 29.3921C31.3696 29.6779 31.6011 29.9035 31.8956 30.0687C32.1901 30.234 32.5273 30.3157 32.9073 30.3139C33.114 30.3129 33.3237 30.2753 33.5365 30.2009C33.756 30.1199 33.932 30.029 34.0647 29.9284C34.1642 29.8546 34.2706 29.8174 34.3839 29.8169C34.5039 29.8096 34.6074 29.8425 34.6946 29.9154C34.8086 30.0148 34.8694 30.1245 34.8769 30.2445C34.8844 30.3645 34.8318 30.4681 34.719 30.5553C34.4936 30.7363 34.2113 30.8844 33.8721 30.9993C33.5395 31.1142 33.2199 31.1724 32.9133 31.1739ZM38.6888 31.1463C38.1555 31.1488 37.678 31.0311 37.2563 30.7931C36.8413 30.5485 36.5124 30.22 36.2695 29.8078C36.0333 29.389 35.9134 28.9162 35.9097 28.3896C35.906 27.8496 36.0194 27.369 36.2498 26.9479C36.4802 26.5268 36.798 26.1986 37.203 25.9634C37.608 25.7214 38.0738 25.5992 38.6005 25.5967C38.9938 25.5948 39.3544 25.6697 39.6821 25.8215C40.0098 25.9666 40.3046 26.1885 40.5667 26.4873C40.6608 26.5935 40.6949 26.7033 40.669 26.8168C40.6431 26.9303 40.5704 27.0306 40.451 27.1178C40.3582 27.185 40.255 27.2088 40.1415 27.1893C40.028 27.1632 39.9243 27.1037 39.8303 27.0108C39.5012 26.6657 39.0934 26.4943 38.6067 26.4967C38.2667 26.4983 37.9673 26.5797 37.7084 26.7409C37.4494 26.8955 37.2476 27.1131 37.1029 27.3938C36.9581 27.6745 36.8871 28.0049 36.8897 28.3849C36.8922 28.7449 36.9677 29.0645 37.1163 29.3438C37.2716 29.6231 37.4831 29.8454 37.751 30.0108C38.0187 30.1695 38.3293 30.248 38.6826 30.2463C38.9159 30.2452 39.1191 30.2176 39.292 30.1634C39.4716 30.1026 39.6343 30.0118 39.7802 29.8911C39.8862 29.8039 39.9959 29.7567 40.1092 29.7495C40.2224 29.7356 40.3226 29.7652 40.4098 29.8381C40.5238 29.9309 40.5879 30.0372 40.602 30.1572C40.6161 30.2704 40.5769 30.3739 40.4842 30.4677C40.0073 30.9167 39.4088 31.1429 38.6888 31.1463ZM44.0543 31.0807C43.721 31.0823 43.4204 31.0004 43.1526 30.835C42.8848 30.6629 42.6731 30.4306 42.5178 30.138C42.3624 29.8454 42.2835 29.5158 42.281 29.1491L42.248 24.3792C42.247 24.2326 42.2929 24.1124 42.3856 24.0186C42.4782 23.9248 42.5979 23.8776 42.7446 23.8769C42.8913 23.8762 43.0116 23.9223 43.1056 24.0151C43.1995 24.108 43.247 24.2278 43.248 24.3745L43.281 29.1443C43.2828 29.411 43.3577 29.634 43.5056 29.8133C43.6535 29.9926 43.8341 30.0817 44.0474 30.0807L44.3874 30.0791C44.5074 30.0785 44.6077 30.1247 44.6884 30.2176C44.7757 30.3106 44.8199 30.4303 44.8209 30.577C44.8219 30.7237 44.766 30.8439 44.6534 30.9378C44.5473 31.0317 44.4077 31.079 44.2343 31.0798L44.0543 31.0807ZM41.8039 26.6814C41.6639 26.6821 41.5503 26.6426 41.4631 26.563C41.3759 26.4834 41.3319 26.3836 41.331 26.2636C41.3301 26.1303 41.3727 26.0234 41.4588 25.943C41.5449 25.8626 41.658 25.8221 41.798 25.8214L44.108 25.8104C44.248 25.8097 44.3616 25.8492 44.4488 25.9287C44.536 26.0083 44.5801 26.1148 44.581 26.2481C44.5818 26.3681 44.5392 26.4683 44.4531 26.5487C44.367 26.6291 44.2539 26.6697 44.1139 26.6703L41.8039 26.6814ZM47.9182 31.1022C47.4516 31.1044 47.0178 31.0365 46.6168 30.8984C46.2225 30.7536 45.9145 30.5718 45.693 30.3528C45.5923 30.2467 45.5481 30.1269 45.5605 29.9935C45.5796 29.8534 45.6455 29.7397 45.7582 29.6525C45.8908 29.5452 46.0205 29.5013 46.1473 29.5207C46.2807 29.5334 46.3944 29.5895 46.4885 29.689C46.6027 29.8152 46.7835 29.9343 47.0309 30.0464C47.285 30.1519 47.5654 30.2039 47.872 30.2024C48.2587 30.2006 48.5516 30.1358 48.7507 30.0082C48.9565 29.8806 49.062 29.7167 49.0673 29.5167C49.0726 29.3167 48.9747 29.1438 48.7737 28.9981C48.5794 28.8524 48.2219 28.7341 47.7013 28.6432C47.027 28.5131 46.5356 28.3155 46.2271 28.0503C45.9253 27.785 45.773 27.4591 45.7704 27.0724C45.768 26.7324 45.8661 26.452 46.0646 26.231C46.263 26.0034 46.5185 25.8355 46.8311 25.7274C47.1437 25.6125 47.4699 25.5543 47.8099 25.5527C48.2499 25.5506 48.6404 25.6187 48.9814 25.7571C49.3223 25.8955 49.5937 26.0875 49.7954 26.3332C49.8894 26.4394 49.9335 26.5525 49.9277 26.6726C49.9218 26.7859 49.8658 26.8829 49.7597 26.9634C49.6536 27.0372 49.527 27.0612 49.3802 27.0352C49.2334 27.0092 49.1096 26.9498 49.009 26.857C48.8412 26.6978 48.6604 26.5886 48.4667 26.5296C48.2729 26.4705 48.0494 26.4415 47.7961 26.4428C47.5027 26.4442 47.2531 26.4954 47.0471 26.5963C46.8478 26.6973 46.7488 26.8444 46.7502 27.0378C46.751 27.1578 46.7817 27.2676 46.8424 27.3673C46.9097 27.4603 47.037 27.5464 47.2242 27.6255C47.4114 27.6979 47.6852 27.77 48.0457 27.8416C48.5464 27.9392 48.9406 28.064 49.2283 28.2159C49.5227 28.3679 49.734 28.5469 49.8621 28.7529C49.9901 28.9523 50.0551 29.1853 50.0569 29.452C50.059 29.7586 49.9776 30.0357 49.8126 30.2832C49.6543 30.5306 49.4157 30.7284 49.0967 30.8766C48.7844 31.0247 48.3916 31.1 47.9182 31.1022ZM11.727 42.2352C11.5804 42.2359 11.4567 42.1865 11.356 42.087C11.2553 41.9874 11.2045 41.8643 11.2034 41.7177L11.1567 34.9478C11.1557 34.7945 11.2048 34.6709 11.3042 34.5771C11.4035 34.4767 11.5265 34.4261 11.6731 34.4254L13.4831 34.4167C14.0564 34.414 14.5771 34.5082 15.0451 34.6993C15.5197 34.8837 15.9316 35.1517 16.2807 35.5034C16.6297 35.8484 16.8992 36.2571 17.0891 36.7295C17.2791 37.202 17.376 37.7248 17.38 38.2981C17.3839 38.8715 17.2942 39.3986 17.1109 39.8794C16.9275 40.3537 16.6637 40.7683 16.3194 41.1232C15.9752 41.4716 15.567 41.7435 15.0951 41.9391C14.6297 42.128 14.1103 42.2238 13.537 42.2265L11.727 42.2352ZM12.2407 41.3127L13.5307 41.3066C14.0906 41.3039 14.5831 41.1749 15.008 40.9195C15.4395 40.6574 15.7771 40.3025 16.0207 39.8547C16.2642 39.4002 16.384 38.8829 16.38 38.3029C16.3759 37.7163 16.249 37.2002 15.9993 36.7547C15.7495 36.3093 15.4071 35.9609 14.9721 35.7096C14.5436 35.4583 14.0494 35.334 13.4895 35.3367L12.1995 35.3429L12.2407 41.3127ZM21.2692 42.2296C20.7292 42.2322 20.2518 42.1178 19.8368 41.8864C19.4218 41.6484 19.0929 41.3233 18.8501 40.9112C18.6138 40.4923 18.4939 40.0128 18.4901 39.4729C18.4864 38.9262 18.5997 38.4457 18.8302 38.0312C19.0673 37.6101 19.3917 37.2819 19.8034 37.0466C20.2151 36.8046 20.6909 36.6823 21.2309 36.6797C21.7642 36.6772 22.2384 36.7949 22.6534 37.0329C23.0683 37.2643 23.3939 37.5894 23.6301 38.0083C23.873 38.4205 23.9963 38.8999 24.0001 39.4465C24.0038 39.9865 23.8904 40.4671 23.66 40.8882C23.4295 41.3026 23.1085 41.6308 22.6968 41.8728C22.2851 42.1081 21.8092 42.227 21.2692 42.2296ZM21.263 41.3296C21.6097 41.328 21.9158 41.2465 22.1813 41.0852C22.4469 40.924 22.652 40.703 22.7968 40.4223C22.9482 40.1416 23.0226 39.8179 23.0201 39.4512C23.0176 39.0846 22.9387 38.7616 22.7834 38.4823C22.6347 38.1964 22.4265 37.974 22.1588 37.8153C21.891 37.6566 21.5838 37.5781 21.2371 37.5797C20.8905 37.5814 20.5844 37.6628 20.3188 37.8241C20.0532 37.9854 19.8448 38.2097 19.6934 38.4971C19.542 38.7778 19.4676 39.1015 19.4701 39.4682C19.4727 39.8348 19.5516 40.1578 19.7068 40.4371C19.8621 40.7163 20.0736 40.9353 20.3414 41.094C20.6091 41.2528 20.9163 41.3313 21.263 41.3296ZM30.007 42.1579C29.8603 42.1586 29.7366 42.1125 29.636 42.0196C29.542 41.9201 29.4945 41.797 29.4934 41.6503L29.4765 39.1904C29.4738 38.8104 29.4017 38.5007 29.2601 38.2614C29.1184 38.0221 28.9272 37.8463 28.6864 37.7341C28.4522 37.6153 28.1818 37.5565 27.8752 37.558C27.5952 37.5593 27.3422 37.6172 27.1164 37.7316C26.8905 37.8461 26.7115 38.0002 26.5795 38.1942C26.4475 38.3815 26.3823 38.5985 26.384 38.8451L25.754 38.8482C25.7511 38.4282 25.8486 38.0544 26.0463 37.7267C26.2507 37.3924 26.5288 37.1278 26.8808 36.9328C27.2328 36.7377 27.6288 36.6392 28.0688 36.6371C28.5288 36.6349 28.9395 36.7329 29.3009 36.9312C29.6689 37.1228 29.9575 37.4081 30.1668 37.7871C30.3828 38.166 30.4926 38.6322 30.4965 39.1855L30.5134 41.6454C30.5144 41.7921 30.4653 41.9157 30.366 42.0162C30.2733 42.1099 30.1536 42.1572 30.007 42.1579ZM25.897 42.1775C25.7503 42.1782 25.6267 42.1321 25.526 42.0393C25.432 41.9397 25.3845 41.8166 25.3835 41.67L25.3527 37.2101C25.3517 37.0567 25.3975 36.9332 25.4902 36.8394C25.5895 36.7456 25.7125 36.6983 25.8592 36.6976C26.0125 36.6969 26.1362 36.743 26.2301 36.8359C26.3241 36.9287 26.3716 37.0519 26.3727 37.2052L26.4035 41.6651C26.4045 41.8117 26.3587 41.9353 26.266 42.0357C26.1733 42.1295 26.0503 42.1768 25.897 42.1775ZM34.6235 42.1658C34.0702 42.1685 33.5761 42.0542 33.1411 41.8229C32.7128 41.5849 32.3739 41.2599 32.1244 40.8477C31.8815 40.4289 31.7582 39.9495 31.7544 39.4095C31.7507 38.8628 31.8607 38.3823 32.0845 37.9679C32.3149 37.5468 32.6327 37.2186 33.0377 36.9833C33.4427 36.7414 33.9086 36.6192 34.4352 36.6167C34.9552 36.6142 35.4027 36.7287 35.7776 36.9603C36.1525 37.1851 36.438 37.5004 36.6342 37.9062C36.8369 38.3052 36.9401 38.7681 36.9438 39.2947C36.9446 39.4214 36.902 39.5282 36.816 39.6153C36.7299 39.6957 36.6201 39.7363 36.4868 39.7369L32.4568 39.7561L32.4513 38.9562L36.4513 38.9371L36.0432 39.219C36.0342 38.8857 35.9655 38.5894 35.8371 38.33C35.7086 38.0639 35.5271 37.8548 35.2927 37.7026C35.0583 37.5504 34.7745 37.4751 34.4412 37.4766C34.0612 37.4785 33.7351 37.5634 33.4629 37.7313C33.1974 37.8993 32.9956 38.1302 32.8577 38.4242C32.7196 38.7115 32.6519 39.0385 32.6544 39.4052C32.657 39.7719 32.7425 40.0981 32.9112 40.384C33.0798 40.6698 33.3114 40.8954 33.6059 41.0607C33.9004 41.2259 34.2376 41.3077 34.6176 41.3058C34.8242 41.3049 35.034 41.2672 35.2468 41.1928C35.4663 41.1118 35.6423 41.0209 35.7749 40.9203C35.8744 40.8465 35.9809 40.8093 36.0942 40.8088C36.2141 40.8015 36.3177 40.8344 36.4049 40.9073C36.5189 41.0068 36.5797 41.1165 36.5871 41.2364C36.5946 41.3564 36.542 41.46 36.4293 41.5472C36.2039 41.7283 35.9216 41.8763 35.5823 41.9912C35.2498 42.1062 34.9302 42.1644 34.6235 42.1658Z" fill="white"/>
</svg>
